REM DIRINDEX 1\2,1\3,1\4,1\5
REM DIRNAME "folder01","folder02","folder03","folder04","folder05"
TITLE ""
FILE "1Q_t_1749-1758.mp3" MP3
  TRACK 01 AUDIO
    TITLE "0:"
    INDEX 01 00:00:00
  TRACK 02 AUDIO
    TITLE "3:cjc172_6242"
    INDEX 01 00:00:10
  TRACK 03 AUDIO
    TITLE "0:"
    INDEX 01 00:01:27
  TRACK 04 AUDIO
    TITLE "4:cjc172_6243"
    INDEX 01 00:01:37
  TRACK 05 AUDIO
    TITLE "0:"
    INDEX 01 00:03:42
  TRACK 06 AUDIO
    TITLE "5:cjc172_6244"
    INDEX 01 00:03:52
  TRACK 07 AUDIO
    TITLE "0:"
    INDEX 01 00:08:33
  TRACK 08 AUDIO
    TITLE "3:cjc172_6245"
    INDEX 01 00:09:09
  TRACK 09 AUDIO
    TITLE "0:"
    INDEX 01 00:10:15
  TRACK 10 AUDIO
    TITLE "4:cjc172_6246"
    INDEX 01 00:10:24
  TRACK 11 AUDIO
    TITLE "0:"
    INDEX 01 00:11:26
  TRACK 12 AUDIO
    TITLE "5:cjc172_6247"
    INDEX 01 00:11:34
  TRACK 13 AUDIO
    TITLE "0:"
    INDEX 01 00:15:45
  TRACK 14 AUDIO
    TITLE "3:cjc172_6248"
    INDEX 01 00:16:17
  TRACK 15 AUDIO
    TITLE "0:"
    INDEX 01 00:17:28
  TRACK 16 AUDIO
    TITLE "4:cjc172_6249"
    INDEX 01 00:17:38
  TRACK 17 AUDIO
    TITLE "0:"
    INDEX 01 00:19:53
  TRACK 18 AUDIO
    TITLE "5:cjc172_6250"
    INDEX 01 00:19:63
  TRACK 19 AUDIO
    TITLE "0:"
    INDEX 01 00:24:34
  TRACK 20 AUDIO
    TITLE "3:cjc172_6251"
    INDEX 01 00:25:06
  TRACK 21 AUDIO
    TITLE "0:"
    INDEX 01 00:26:25
  TRACK 22 AUDIO
    TITLE "4:cjc172_6252"
    INDEX 01 00:26:35
  TRACK 23 AUDIO
    TITLE "0:"
    INDEX 01 00:28:16
  TRACK 24 AUDIO
    TITLE "5:cjc172_6253"
    INDEX 01 00:28:24
  TRACK 25 AUDIO
    TITLE "0:"
    INDEX 01 00:32:67
  TRACK 26 AUDIO
    TITLE "3:cjc172_6254"
    INDEX 01 00:33:39
  TRACK 27 AUDIO
    TITLE "0:"
    INDEX 01 00:34:46
  TRACK 28 AUDIO
    TITLE "4:cjc172_6255"
    INDEX 01 00:34:56
  TRACK 29 AUDIO
    TITLE "0:"
    INDEX 01 00:37:09
  TRACK 30 AUDIO
    TITLE "5:cjc172_6256"
    INDEX 01 00:37:17
  TRACK 31 AUDIO
    TITLE "0:"
    INDEX 01 00:43:59
  TRACK 32 AUDIO
    TITLE "3:cjc172_6257"
    INDEX 01 00:44:33
  TRACK 33 AUDIO
    TITLE "0:"
    INDEX 01 00:45:44
  TRACK 34 AUDIO
    TITLE "4:cjc172_6258"
    INDEX 01 00:45:56
  TRACK 35 AUDIO
    TITLE "0:"
    INDEX 01 00:46:52
  TRACK 36 AUDIO
    TITLE "5:cjc172_6259"
    INDEX 01 00:46:59
  TRACK 37 AUDIO
    TITLE "0:"
    INDEX 01 00:51:08
  TRACK 38 AUDIO
    TITLE "3:cjc172_6260"
    INDEX 01 00:51:53
  TRACK 39 AUDIO
    TITLE "0:"
    INDEX 01 00:53:07
  TRACK 40 AUDIO
    TITLE "4:cjc172_6261"
    INDEX 01 00:53:16
  TRACK 41 AUDIO
    TITLE "0:"
    INDEX 01 00:55:11
  TRACK 42 AUDIO
    TITLE "5:cjc172_6262"
    INDEX 01 00:55:21
  TRACK 43 AUDIO
    TITLE "0:"
    INDEX 01 00:59:74
  TRACK 44 AUDIO
    TITLE "3:cjc172_6263"
    INDEX 01 01:00:56
  TRACK 45 AUDIO
    TITLE "0:"
    INDEX 01 01:01:69
  TRACK 46 AUDIO
    TITLE "4:cjc172_6264"
    INDEX 01 01:02:02
  TRACK 47 AUDIO
    TITLE "0:"
    INDEX 01 01:04:20
  TRACK 48 AUDIO
    TITLE "5:cjc172_6265"
    INDEX 01 01:04:28
  TRACK 49 AUDIO
    TITLE "0:"
    INDEX 01 01:08:61
  TRACK 50 AUDIO
    TITLE "3:cjc172_6266"
    INDEX 01 01:09:33
  TRACK 51 AUDIO
    TITLE "0:"
    INDEX 01 01:10:60
  TRACK 52 AUDIO
    TITLE "4:cjc172_6267"
    INDEX 01 01:10:70
  TRACK 53 AUDIO
    TITLE "0:"
    INDEX 01 01:12:74
  TRACK 54 AUDIO
    TITLE "5:cjc172_6268"
    INDEX 01 01:13:07
  TRACK 55 AUDIO
    TITLE "0:"
    INDEX 01 01:18:06
  TRACK 56 AUDIO
    TITLE "3:cjc172_6269"
    INDEX 01 01:18:54
  TRACK 57 AUDIO
    TITLE "0:"
    INDEX 01 01:19:59
  TRACK 58 AUDIO
    TITLE "4:cjc172_6270"
    INDEX 01 01:19:69
  TRACK 59 AUDIO
    TITLE "0:"
    INDEX 01 01:23:47
  TRACK 60 AUDIO
    TITLE "5:cjc172_6271"
    INDEX 01 01:23:57
  TRACK 61 AUDIO
    TITLE "0:"
    INDEX 01 01:29:38
